<svg width="37" height="37" viewBox="0 0 37 37" fill="none" xmlns="http://www.w3.org/2000/svg">
<path fill-rule="evenodd" clip-rule="evenodd" d="M31.6093 5.37664C29.899 3.66545 27.867 2.30945 25.6305 1.38672C23.394 0.46398 20.997 -0.00727315 18.5776 8.48517e-05C8.42409 8.48517e-05 0.158571 8.22431 0.154442 18.3349C0.14995 21.5543 0.998582 24.7174 2.61395 27.5023L0 37L9.76617 34.4505C12.4695 35.915 15.4956 36.6814 18.5702 36.6804H18.5776C28.7303 36.6804 36.995 28.4553 36.9999 18.3456C37.0061 15.9345 36.5327 13.5462 35.6072 11.3197C34.6818 9.09322 33.3228 7.07302 31.6093 5.37664ZM18.5776 33.5858H18.571C15.8302 33.5866 13.1392 32.8531 10.7779 31.4616L10.2188 31.1312L4.42347 32.6442L5.97037 27.0208L5.60615 26.4426C4.07362 24.0163 3.26165 21.2047 3.26475 18.3349C3.26475 9.93307 10.137 3.09718 18.5834 3.09718C22.6352 3.08994 26.524 4.69241 29.3944 7.55213C32.2648 10.4119 33.8818 14.2946 33.8896 18.3464C33.8863 26.749 27.0174 33.5858 18.5776 33.5858ZM26.9761 22.1728C26.5161 21.9432 24.2507 20.8348 23.8311 20.682C23.4115 20.5293 23.1018 20.4524 22.7954 20.9116C22.489 21.3708 21.6061 22.3982 21.3377 22.708C21.0693 23.0177 20.8009 23.0515 20.3409 22.8219C19.8809 22.5923 18.3967 22.1092 16.6384 20.5483C15.2699 19.3334 14.3466 17.8335 14.0781 17.3752C13.8097 16.9168 14.0492 16.6682 14.2797 16.4403C14.487 16.2346 14.7397 15.9051 14.9701 15.6375C15.2005 15.3699 15.2773 15.1783 15.4301 14.8727C15.5829 14.5671 15.5069 14.2996 15.3921 14.0708C15.2773 13.842 14.3565 11.5865 13.9733 10.6689C13.5991 9.77533 13.22 9.89674 12.9376 9.8827C12.6692 9.86948 12.3595 9.86618 12.0547 9.86618C11.8217 9.87224 11.5925 9.92627 11.3814 10.0249C11.1702 10.1235 10.9816 10.2646 10.8274 10.4393C10.4054 10.8985 9.21612 12.0085 9.21612 14.2616C9.21612 16.5146 10.8679 18.695 11.0959 19.0005C11.3238 19.3061 14.3416 23.9336 18.9592 25.9182C19.8166 26.2854 20.6927 26.6074 21.5838 26.8828C22.6864 27.2314 23.6899 27.1826 24.4827 27.0645C25.3673 26.9332 27.2082 25.9562 27.5906 24.8858C27.9729 23.8155 27.9738 22.8987 27.859 22.708C27.7442 22.5172 27.4369 22.4016 26.9761 22.1728Z" fill="#34A400"/>
</svg>
