<svg width="230" height="76" viewBox="0 0 230 76" fill="none" xmlns="http://www.w3.org/2000/svg">
<path d="M81.3955 4.07704L84.7562 8.27555L75.7171 26.0711H83.2883V30H73.1289L70 25.763L79.1551 8.04444H72.3177V4.07704H81.3955Z" fill="#D49B5E"/>
<path d="M97.6465 26.0711V30H87.0622V4.07704H92.1226V26.0711H97.6465Z" fill="#D49B5E"/>
<path d="M110.072 4L113.896 30H108.99L108.488 24.9541H103.814L103.312 30H98.4058L102.076 4H110.072ZM104.2 21.0252H108.179L106.904 8.69926H105.205L104.2 21.0252Z" fill="#D49B5E"/>
<path d="M126.73 4.07704V8.04444H123.253V30H118.27V8.04444H114.755V4.07704H126.73Z" fill="#D49B5E"/>
<path d="M143.327 7.65926V26.3793L139.696 30H133.322L129.575 26.4178V7.65926L133.322 4.07704H139.502L143.327 7.65926ZM134.635 26.0711H138.344V8.04444H134.635V26.0711Z" fill="#D49B5E"/>
<path d="M158.231 26.0711V30H147.646V4.07704H152.707V26.0711H158.231Z" fill="#D49B5E"/>
<path d="M166.291 4.07704V30H161.23V4.07704H166.291Z" fill="#D49B5E"/>
<path d="M181.316 4.07704V8.04444H177.839V30H172.856V8.04444H169.341V4.07704H181.316Z" fill="#D49B5E"/>
<path d="M188.989 25.917V30H184.006V25.917H188.989Z" fill="#D49B5E"/>
<path d="M206.929 20.0622V30H202.1V19.1763H198.392V30H193.293V4.07704H203.104L206.929 7.65926V14.2074L203.529 17.1733L206.929 20.0622ZM198.392 15.2089H202.1V8.04444H198.392V15.2089Z" fill="#D49B5E"/>
<path d="M225 4.07704V26.3793L221.292 30H214.841L211.094 26.4178V4.07704H216.154V26.0711H219.94V4.07704H225Z" fill="#D49B5E"/>
<path d="M71.12 56V44.48H73.048V49.824L77.648 44.48H80.016L75.064 50.128L80.352 56H77.904L73.048 50.624V56H71.12ZM82.9994 56L84.5194 52.896L80.5434 44.48H82.7194L85.5274 50.864L88.4234 44.48H90.4794L85.0554 56H82.9994ZM91.6669 56V44.48H101.003V56H99.0749V46.288H93.5949V56H91.6669ZM112.493 56H110.541V47.88L105.197 56H103.245V44.48H105.197V52.6L110.541 44.48H112.493V56ZM117.497 56V46.288H113.769V44.48H123.153V46.288H119.425V56H117.497ZM124.417 56V44.48H126.345V48.504H129.177C129.283 48.504 129.427 48.5093 129.609 48.52C129.79 48.5253 129.955 48.5413 130.105 48.568C130.766 48.6693 131.313 48.8907 131.745 49.232C132.182 49.5733 132.505 50.0053 132.713 50.528C132.926 51.0453 133.033 51.6187 133.033 52.248C133.033 52.8827 132.926 53.4613 132.713 53.984C132.505 54.5013 132.182 54.9307 131.745 55.272C131.313 55.6133 130.766 55.8347 130.105 55.936C129.955 55.9573 129.79 55.9733 129.609 55.984C129.433 55.9947 129.289 56 129.177 56H124.417ZM126.345 54.192H129.097C129.209 54.192 129.329 54.1867 129.457 54.176C129.59 54.1653 129.715 54.1467 129.833 54.12C130.147 54.04 130.395 53.8987 130.577 53.696C130.763 53.4933 130.894 53.264 130.969 53.008C131.049 52.7467 131.089 52.4933 131.089 52.248C131.089 52.0027 131.049 51.752 130.969 51.496C130.894 51.24 130.763 51.0107 130.577 50.808C130.395 50.6053 130.147 50.464 129.833 50.384C129.715 50.352 129.59 50.3307 129.457 50.32C129.329 50.3093 129.209 50.304 129.097 50.304H126.345V54.192ZM142.075 56.24C141.264 56.24 140.555 56.1227 139.947 55.888C139.344 55.648 138.838 55.3413 138.427 54.968C138.022 54.5893 137.71 54.192 137.491 53.776L139.139 52.656C139.267 52.9493 139.454 53.232 139.699 53.504C139.944 53.7707 140.267 53.992 140.667 54.168C141.067 54.3387 141.563 54.424 142.155 54.424C142.726 54.424 143.192 54.3387 143.555 54.168C143.918 53.9973 144.184 53.7733 144.355 53.496C144.526 53.2187 144.611 52.9173 144.611 52.592C144.611 52.1867 144.499 51.8747 144.275 51.656C144.051 51.432 143.758 51.2773 143.395 51.192C143.032 51.1013 142.646 51.0507 142.235 51.04C141.862 51.0293 141.592 51.0213 141.427 51.016C141.262 51.0107 141.152 51.008 141.099 51.008C141.046 51.008 140.995 51.008 140.947 51.008V49.184C141.006 49.184 141.104 49.184 141.243 49.184C141.387 49.184 141.534 49.184 141.683 49.184C141.838 49.1787 141.963 49.1733 142.059 49.168C142.667 49.1413 143.166 49 143.555 48.744C143.95 48.488 144.147 48.1093 144.147 47.608C144.147 47.1227 143.963 46.7413 143.595 46.464C143.232 46.1867 142.75 46.048 142.147 46.048C141.582 46.048 141.083 46.1733 140.651 46.424C140.224 46.6747 139.902 46.9707 139.683 47.312L138.331 45.936C138.72 45.4613 139.248 45.0613 139.915 44.736C140.587 44.4053 141.35 44.24 142.203 44.24C142.704 44.24 143.192 44.3067 143.667 44.44C144.142 44.568 144.568 44.7653 144.947 45.032C145.326 45.2987 145.627 45.64 145.851 46.056C146.075 46.472 146.187 46.968 146.187 47.544C146.187 48.072 146.086 48.56 145.883 49.008C145.686 49.4507 145.408 49.8133 145.051 50.096C145.558 50.2987 145.95 50.608 146.227 51.024C146.51 51.44 146.651 51.9653 146.651 52.6C146.651 53.3467 146.448 53.992 146.043 54.536C145.638 55.08 145.088 55.5013 144.395 55.8C143.707 56.0933 142.934 56.24 142.075 56.24ZM147.586 56V54.384C147.842 54.4 148.058 54.3813 148.234 54.328C148.41 54.2693 148.556 54.16 148.674 54C148.796 53.8347 148.903 53.6027 148.994 53.304C149.084 53 149.172 52.6187 149.258 52.16C149.38 51.504 149.482 50.8213 149.562 50.112C149.647 49.3973 149.719 48.696 149.778 48.008C149.836 47.3147 149.882 46.664 149.914 46.056C149.946 45.448 149.972 44.9227 149.994 44.48H157.706V56H155.778V46.288H151.778C151.751 46.6453 151.719 47.0773 151.682 47.584C151.65 48.0853 151.604 48.6293 151.546 49.216C151.492 49.8027 151.423 50.4107 151.338 51.04C151.258 51.6693 151.159 52.288 151.042 52.896C150.935 53.4507 150.807 53.9493 150.658 54.392C150.508 54.8293 150.308 55.192 150.058 55.48C149.812 55.7627 149.49 55.952 149.09 56.048C148.695 56.144 148.194 56.128 147.586 56ZM159.148 56L162.78 44.48H165.604L169.236 56H167.252L163.956 45.664H164.388L161.132 56H159.148ZM161.172 53.504V51.704H167.22V53.504H161.172ZM172.497 56V46.288H168.769V44.48H178.153V46.288H174.425V56H172.497ZM184.305 56.24C183.153 56.24 182.166 55.9893 181.345 55.488C180.523 54.9813 179.891 54.2773 179.449 53.376C179.011 52.4747 178.793 51.4293 178.793 50.24C178.793 49.0507 179.011 48.0053 179.449 47.104C179.891 46.2027 180.523 45.5013 181.345 45C182.166 44.4933 183.153 44.24 184.305 44.24C185.457 44.24 186.443 44.4933 187.265 45C188.091 45.5013 188.723 46.2027 189.161 47.104C189.603 48.0053 189.825 49.0507 189.825 50.24C189.825 51.4293 189.603 52.4747 189.161 53.376C188.723 54.2773 188.091 54.9813 187.265 55.488C186.443 55.9893 185.457 56.24 184.305 56.24ZM184.305 54.424C185.078 54.4293 185.721 54.2587 186.233 53.912C186.75 53.5653 187.137 53.0773 187.393 52.448C187.654 51.8187 187.785 51.0827 187.785 50.24C187.785 49.3973 187.654 48.6667 187.393 48.048C187.137 47.424 186.75 46.9387 186.233 46.592C185.721 46.2453 185.078 46.0667 184.305 46.056C183.531 46.0507 182.889 46.2213 182.377 46.568C181.865 46.9147 181.478 47.4027 181.217 48.032C180.961 48.6613 180.833 49.3973 180.833 50.24C180.833 51.0827 180.961 51.816 181.217 52.44C181.473 53.0587 181.857 53.5413 182.369 53.888C182.886 54.2347 183.531 54.4133 184.305 54.424ZM190.304 56V54.384C190.56 54.4 190.776 54.3813 190.952 54.328C191.128 54.2693 191.275 54.16 191.392 54C191.515 53.8347 191.622 53.6027 191.712 53.304C191.803 53 191.891 52.6187 191.976 52.16C192.099 51.504 192.2 50.8213 192.28 50.112C192.366 49.3973 192.438 48.696 192.496 48.008C192.555 47.3147 192.6 46.664 192.632 46.056C192.664 45.448 192.691 44.9227 192.712 44.48H200.424V56H198.496V46.288H194.496C194.47 46.6453 194.438 47.0773 194.4 47.584C194.368 48.0853 194.323 48.6293 194.264 49.216C194.211 49.8027 194.142 50.4107 194.056 51.04C193.976 51.6693 193.878 52.288 193.76 52.896C193.654 53.4507 193.526 53.9493 193.376 54.392C193.227 54.8293 193.027 55.192 192.776 55.48C192.531 55.7627 192.208 55.952 191.808 56.048C191.414 56.144 190.912 56.128 190.304 56ZM211.915 56H209.963V47.88L204.619 56H202.667V44.48H204.619V52.6L209.963 44.48H211.915V56ZM216.919 56V46.288H213.191V44.48H222.575V46.288H218.847V56H216.919ZM72.64 72L74.16 68.896L70.184 60.48H72.36L75.168 66.864L78.064 60.48H80.12L74.696 72H72.64ZM83.87 72V60.48H93.206V72H91.278V62.288H85.798V72H83.87ZM95.4481 72V60.48H100.208C100.32 60.48 100.464 60.4853 100.64 60.496C100.816 60.5013 100.979 60.5173 101.128 60.544C101.795 60.6453 102.344 60.8667 102.776 61.208C103.213 61.5493 103.536 61.9813 103.744 62.504C103.957 63.0213 104.064 63.5973 104.064 64.232C104.064 64.8613 103.957 65.4373 103.744 65.96C103.531 66.4773 103.205 66.9067 102.768 67.248C102.336 67.5893 101.789 67.8107 101.128 67.912C100.979 67.9333 100.813 67.9493 100.632 67.96C100.456 67.9707 100.315 67.976 100.208 67.976H97.3761V72H95.4481ZM97.3761 66.176H100.128C100.235 66.176 100.355 66.1707 100.488 66.16C100.621 66.1493 100.744 66.128 100.856 66.096C101.176 66.016 101.427 65.8747 101.608 65.672C101.795 65.4693 101.925 65.24 102 64.984C102.08 64.728 102.12 64.4773 102.12 64.232C102.12 63.9867 102.08 63.736 102 63.48C101.925 63.2187 101.795 62.9867 101.608 62.784C101.427 62.5813 101.176 62.44 100.856 62.36C100.744 62.328 100.621 62.3093 100.488 62.304C100.355 62.2933 100.235 62.288 100.128 62.288H97.3761V66.176ZM110.539 72.24C109.387 72.24 108.4 71.9893 107.579 71.488C106.758 70.9813 106.126 70.2773 105.683 69.376C105.246 68.4747 105.027 67.4293 105.027 66.24C105.027 65.0507 105.246 64.0053 105.683 63.104C106.126 62.2027 106.758 61.5013 107.579 61C108.4 60.4933 109.387 60.24 110.539 60.24C111.691 60.24 112.678 60.4933 113.499 61C114.326 61.5013 114.958 62.2027 115.395 63.104C115.838 64.0053 116.059 65.0507 116.059 66.24C116.059 67.4293 115.838 68.4747 115.395 69.376C114.958 70.2773 114.326 70.9813 113.499 71.488C112.678 71.9893 111.691 72.24 110.539 72.24ZM110.539 70.424C111.312 70.4293 111.955 70.2587 112.467 69.912C112.984 69.5653 113.371 69.0773 113.627 68.448C113.888 67.8187 114.019 67.0827 114.019 66.24C114.019 65.3973 113.888 64.6667 113.627 64.048C113.371 63.424 112.984 62.9387 112.467 62.592C111.955 62.2453 111.312 62.0667 110.539 62.056C109.766 62.0507 109.123 62.2213 108.611 62.568C108.099 62.9147 107.712 63.4027 107.451 64.032C107.195 64.6613 107.067 65.3973 107.067 66.24C107.067 67.0827 107.195 67.816 107.451 68.44C107.707 69.0587 108.091 69.5413 108.603 69.888C109.12 70.2347 109.766 70.4133 110.539 70.424ZM126.899 72H124.947V63.88L119.603 72H117.651V60.48H119.603V68.6L124.947 60.48H126.899V72ZM133.216 72.24C132.405 72.24 131.696 72.1227 131.088 71.888C130.485 71.648 129.978 71.3413 129.568 70.968C129.162 70.5893 128.85 70.192 128.632 69.776L130.28 68.656C130.408 68.9493 130.594 69.232 130.84 69.504C131.085 69.7707 131.408 69.992 131.808 70.168C132.208 70.3387 132.704 70.424 133.296 70.424C133.866 70.424 134.333 70.3387 134.696 70.168C135.058 69.9973 135.325 69.7733 135.496 69.496C135.666 69.2187 135.752 68.9173 135.752 68.592C135.752 68.1867 135.64 67.8747 135.416 67.656C135.192 67.432 134.898 67.2773 134.536 67.192C134.173 67.1013 133.786 67.0507 133.376 67.04C133.002 67.0293 132.733 67.0213 132.568 67.016C132.402 67.0107 132.293 67.008 132.24 67.008C132.186 67.008 132.136 67.008 132.088 67.008V65.184C132.146 65.184 132.245 65.184 132.384 65.184C132.528 65.184 132.674 65.184 132.824 65.184C132.978 65.1787 133.104 65.1733 133.2 65.168C133.808 65.1413 134.306 65 134.696 64.744C135.09 64.488 135.288 64.1093 135.288 63.608C135.288 63.1227 135.104 62.7413 134.736 62.464C134.373 62.1867 133.89 62.048 133.288 62.048C132.722 62.048 132.224 62.1733 131.792 62.424C131.365 62.6747 131.042 62.9707 130.824 63.312L129.472 61.936C129.861 61.4613 130.389 61.0613 131.056 60.736C131.728 60.4053 132.49 60.24 133.344 60.24C133.845 60.24 134.333 60.3067 134.808 60.44C135.282 60.568 135.709 60.7653 136.088 61.032C136.466 61.2987 136.768 61.64 136.992 62.056C137.216 62.472 137.328 62.968 137.328 63.544C137.328 64.072 137.226 64.56 137.024 65.008C136.826 65.4507 136.549 65.8133 136.192 66.096C136.698 66.2987 137.09 66.608 137.368 67.024C137.65 67.44 137.792 67.9653 137.792 68.6C137.792 69.3467 137.589 69.992 137.184 70.536C136.778 71.08 136.229 71.5013 135.536 71.8C134.848 72.0933 134.074 72.24 133.216 72.24ZM139.526 72V60.48H144.094C144.873 60.48 145.51 60.6373 146.006 60.952C146.508 61.2613 146.878 61.6587 147.118 62.144C147.364 62.6293 147.486 63.1307 147.486 63.648C147.486 64.2827 147.334 64.8213 147.03 65.264C146.732 65.7067 146.324 66.0053 145.806 66.16V65.76C146.532 65.9253 147.081 66.2693 147.454 66.792C147.833 67.3147 148.022 67.9093 148.022 68.576C148.022 69.2587 147.892 69.856 147.63 70.368C147.369 70.88 146.98 71.28 146.462 71.568C145.95 71.856 145.316 72 144.558 72H139.526ZM141.478 70.184H144.318C144.654 70.184 144.956 70.1173 145.222 69.984C145.489 69.8453 145.697 69.6533 145.846 69.408C146.001 69.1573 146.078 68.8613 146.078 68.52C146.078 68.2107 146.012 67.9333 145.878 67.688C145.745 67.4427 145.55 67.248 145.294 67.104C145.038 66.9547 144.732 66.88 144.374 66.88H141.478V70.184ZM141.478 65.08H144.07C144.348 65.08 144.596 65.0267 144.814 64.92C145.033 64.8133 145.206 64.656 145.334 64.448C145.462 64.24 145.526 63.984 145.526 63.68C145.526 63.28 145.398 62.9467 145.142 62.68C144.886 62.4133 144.529 62.28 144.07 62.28H141.478V65.08ZM154.492 72.24C153.34 72.24 152.353 71.9893 151.532 71.488C150.711 70.9813 150.079 70.2773 149.636 69.376C149.199 68.4747 148.98 67.4293 148.98 66.24C148.98 65.0507 149.199 64.0053 149.636 63.104C150.079 62.2027 150.711 61.5013 151.532 61C152.353 60.4933 153.34 60.24 154.492 60.24C155.644 60.24 156.631 60.4933 157.452 61C158.279 61.5013 158.911 62.2027 159.348 63.104C159.791 64.0053 160.012 65.0507 160.012 66.24C160.012 67.4293 159.791 68.4747 159.348 69.376C158.911 70.2773 158.279 70.9813 157.452 71.488C156.631 71.9893 155.644 72.24 154.492 72.24ZM154.492 70.424C155.265 70.4293 155.908 70.2587 156.42 69.912C156.937 69.5653 157.324 69.0773 157.58 68.448C157.841 67.8187 157.972 67.0827 157.972 66.24C157.972 65.3973 157.841 64.6667 157.58 64.048C157.324 63.424 156.937 62.9387 156.42 62.592C155.908 62.2453 155.265 62.0667 154.492 62.056C153.719 62.0507 153.076 62.2213 152.564 62.568C152.052 62.9147 151.665 63.4027 151.404 64.032C151.148 64.6613 151.02 65.3973 151.02 66.24C151.02 67.0827 151.148 67.816 151.404 68.44C151.66 69.0587 152.044 69.5413 152.556 69.888C153.073 70.2347 153.719 70.4133 154.492 70.424ZM160.676 73.92V70.192C161.049 70.192 161.361 70.0987 161.612 69.912C161.863 69.7253 162.063 69.4667 162.212 69.136C162.367 68.8053 162.487 68.4213 162.572 67.984C162.657 67.5413 162.724 67.072 162.772 66.576C162.831 65.92 162.881 65.2773 162.924 64.648C162.967 64.0133 163.007 63.3573 163.044 62.68C163.087 61.9973 163.135 61.2587 163.188 60.464L170.7 60.48V70.192H171.564V73.92H169.644V72H162.604V73.92H160.676ZM163.676 70.192H168.772V62.288L164.948 62.272C164.911 62.832 164.879 63.3547 164.852 63.84C164.831 64.32 164.801 64.808 164.764 65.304C164.732 65.8 164.687 66.3413 164.628 66.928C164.575 67.504 164.516 67.984 164.452 68.368C164.393 68.752 164.305 69.0853 164.188 69.368C164.071 69.6453 163.9 69.92 163.676 70.192ZM182.571 72H180.619V63.88L175.275 72H173.323V60.48H175.275V68.6L180.619 60.48H182.571V72ZM187.576 72V62.288H183.848V60.48H193.232V62.288H189.504V72H187.576ZM194.511 72V60.48H201.951V62.288H196.439V65.128H200.991V66.936H196.439V70.192H201.951V72H194.511ZM203.07 72V70.384C203.326 70.4 203.542 70.3813 203.718 70.328C203.894 70.2693 204.041 70.16 204.158 70C204.281 69.8347 204.387 69.6027 204.478 69.304C204.569 69 204.657 68.6187 204.742 68.16C204.865 67.504 204.966 66.8213 205.046 66.112C205.131 65.3973 205.203 64.696 205.262 64.008C205.321 63.3147 205.366 62.664 205.398 62.056C205.43 61.448 205.457 60.9227 205.478 60.48H213.19V72H211.262V62.288H207.262C207.235 62.6453 207.203 63.0773 207.166 63.584C207.134 64.0853 207.089 64.6293 207.03 65.216C206.977 65.8027 206.907 66.4107 206.822 67.04C206.742 67.6693 206.643 68.288 206.526 68.896C206.419 69.4507 206.291 69.9493 206.142 70.392C205.993 70.8293 205.793 71.192 205.542 71.48C205.297 71.7627 204.974 71.952 204.574 72.048C204.179 72.144 203.678 72.128 203.07 72ZM223.753 72H221.833V67.976H218.857L218.033 67.904C217.051 67.744 216.323 67.328 215.849 66.656C215.374 65.9787 215.137 65.1707 215.137 64.232C215.137 63.5973 215.243 63.0213 215.457 62.504C215.67 61.9813 215.993 61.5493 216.424 61.208C216.857 60.8667 217.406 60.6453 218.073 60.544C218.227 60.5173 218.39 60.5013 218.561 60.496C218.737 60.4853 218.881 60.48 218.993 60.48H223.753V72ZM217.137 72H214.953L217.449 66.88L219.409 67.312L217.137 72ZM221.833 66.176V62.288H219.073C218.966 62.288 218.846 62.2933 218.713 62.304C218.579 62.3093 218.457 62.328 218.345 62.36C218.025 62.44 217.771 62.5813 217.585 62.784C217.403 62.9867 217.275 63.2187 217.201 63.48C217.126 63.736 217.089 63.9867 217.089 64.232C217.089 64.4773 217.126 64.728 217.201 64.984C217.275 65.24 217.403 65.4693 217.585 65.672C217.771 65.8747 218.025 66.016 218.345 66.096C218.457 66.128 218.579 66.1493 218.713 66.16C218.846 66.1707 218.966 66.176 219.073 66.176H221.833Z" fill="#D6D6D6"/>
<path fill-rule="evenodd" clip-rule="evenodd" d="M0 0H60V22.1791L34.162 46.9608L28.4072 41.4412L19.2233 50.2498L25.0198 55.8094C23.4799 57.8073 23.6534 60.6384 25.5405 62.4483L26.9478 63.798C28.8349 65.608 31.7867 65.7745 33.8697 64.2974L39.1218 69.3351L48.3059 60.5265L43.0953 55.5289L60 39.3153V75.2542H0V55.5321L27.1311 29.51L32.5419 34.6996L41.7258 25.891L36.1926 20.5839C37.3843 18.6289 37.1064 16.0768 35.3587 14.4005L33.7133 12.8223C31.9656 11.146 29.3047 10.8795 27.2665 12.0226L21.8272 6.80573L12.6432 15.6143L17.9598 20.7135L0 37.9392V0Z" fill="#D39B5E"/>
<path fill-rule="evenodd" clip-rule="evenodd" d="M28.4072 41.4412L34.162 46.9608L60 22.1791V0H0V37.9392L17.9598 20.7135L12.6432 15.6143L21.8272 6.80573L27.2665 12.0226C29.3047 10.8795 31.9656 11.146 33.7133 12.8223L35.3587 14.4005C37.1064 16.0768 37.3843 18.6289 36.1926 20.5839L41.7258 25.891L32.5419 34.6996L27.1311 29.51L0 55.5321V75.2542H60V39.3153L43.0953 55.5289L48.3059 60.5265L39.1218 69.3351L33.8697 64.2974C31.7867 65.7745 28.8349 65.608 26.9478 63.798L25.5405 62.4483C23.6534 60.6384 23.4799 57.8073 25.0198 55.8094L19.2233 50.2498L28.4072 41.4412ZM22.8134 56.0995L16.7145 50.2498L28.4072 39.035L34.162 44.5545L58.2352 21.4654V1.71033H1.7647V33.8403L15.451 20.7135L10.1345 15.6143L21.8272 4.3995L27.6506 9.98482C30.124 9.17085 32.9749 9.70781 34.9545 11.6067L36.6 13.1848C38.5774 15.0815 39.1468 17.8212 38.3057 20.2044L44.2346 25.891L32.5419 37.1057L27.1311 31.9163L1.7647 56.2458V73.544H58.2352V43.4142L45.6041 55.5289L50.8146 60.5265L39.1218 71.7412L33.5766 66.4227C30.9809 67.5255 27.8378 67.058 25.7065 65.0138L24.2992 63.6639C22.1691 61.6208 21.6729 58.5996 22.8134 56.0995Z" fill="white"/>
</svg>
