<svg width="17" height="16" viewBox="0 0 17 16" fill="none" xmlns="http://www.w3.org/2000/svg">
<path d="M13.3205 15.9999C12.6233 15.9999 11.6438 15.7477 10.177 14.9284C8.39346 13.9284 7.0139 13.0052 5.23996 11.2362C3.52961 9.52728 2.6973 8.42084 1.53242 6.30153C0.216435 3.90864 0.440766 2.65434 0.691532 2.11827C0.990164 1.47754 1.43097 1.09432 2.00073 0.713963C2.32435 0.501973 2.66682 0.32025 3.02379 0.171099C3.05952 0.155742 3.09274 0.141099 3.12239 0.127884C3.29921 0.0482406 3.56712 -0.0721179 3.90648 0.056455C4.13295 0.141456 4.33513 0.315387 4.65163 0.627891C5.30069 1.2679 6.18766 2.69327 6.51486 3.39328C6.73455 3.86507 6.87994 4.1765 6.8803 4.52579C6.8803 4.93473 6.67454 5.25009 6.42485 5.59045C6.37805 5.65438 6.33161 5.71545 6.2866 5.77474C6.01476 6.13189 5.95511 6.2351 5.9944 6.41939C6.07406 6.78975 6.66811 7.89226 7.64438 8.8662C8.62065 9.84015 9.69159 10.3966 10.0634 10.4759C10.2556 10.5169 10.361 10.4548 10.7297 10.1734C10.7825 10.133 10.8368 10.0912 10.8936 10.0494C11.2744 9.76622 11.5752 9.56586 11.9746 9.56586H11.9767C12.3243 9.56586 12.6218 9.71657 13.1148 9.96515C13.7578 10.2894 15.2263 11.1648 15.8703 11.8145C16.1836 12.1302 16.3583 12.3316 16.4437 12.5577C16.5723 12.898 16.4512 13.1648 16.3722 13.3434C16.359 13.373 16.3444 13.4055 16.329 13.4416C16.1787 13.7979 15.9958 14.1396 15.7828 14.4623C15.4031 15.0302 15.0184 15.4699 14.3761 15.7688C14.0463 15.9248 13.6854 16.0038 13.3205 15.9999Z" fill="white"/>
</svg>
