<svg width="13" height="14" viewBox="0 0 13 14" fill="none" xmlns="http://www.w3.org/2000/svg">
<path fill-rule="evenodd" clip-rule="evenodd" d="M12.5303 2.03033C12.8232 1.73744 12.8232 1.26256 12.5303 0.96967C12.2374 0.676777 11.7626 0.676777 11.4697 0.96967L6.5 5.93934L1.53033 0.96967C1.23744 0.676777 0.762563 0.676777 0.46967 0.96967C0.176777 1.26256 0.176777 1.73744 0.46967 2.03033L5.43934 7L0.46967 11.9697C0.176777 12.2626 0.176777 12.7374 0.46967 13.0303C0.762563 13.3232 1.23744 13.3232 1.53033 13.0303L6.5 8.06066L11.4697 13.0303C11.7626 13.3232 12.2374 13.3232 12.5303 13.0303C12.8232 12.7374 12.8232 12.2626 12.5303 11.9697L7.56066 7L12.5303 2.03033Z" fill="#1e1e1e"/>
</svg>
