<svg width="37" height="37" viewBox="0 0 37 37" fill="none" xmlns="http://www.w3.org/2000/svg">
<path d="M18.7588 0.00171883C8.3548 -0.138797 -0.138803 8.35439 0.00171892 18.7579C0.140463 28.7354 8.26497 36.8595 18.2429 36.9982C28.6487 37.1405 37.1405 28.6473 36.9982 18.2438C36.8613 8.26457 28.7368 0.140456 18.7588 0.00171883ZM26.95 11.3177L19.6357 27.9056C19.2097 28.8368 17.7876 28.5282 17.7876 27.5001V19.5672C17.7876 19.4728 17.7501 19.3824 17.6834 19.3156C17.6167 19.2489 17.5262 19.2115 17.4318 19.2115H9.50032C8.47575 19.2115 8.16625 17.8001 9.09387 17.3732L25.6835 10.0513C25.8608 9.9694 26.0589 9.94389 26.2511 9.97815C26.4433 10.0124 26.6204 10.1048 26.7584 10.2428C26.8965 10.3809 26.9888 10.558 27.0231 10.7501C27.0574 10.9423 27.0319 11.1404 26.95 11.3177Z" fill="black"/>
</svg>
