<svg width="37" height="31" viewBox="0 0 37 31" fill="none" xmlns="http://www.w3.org/2000/svg">
<path d="M32.375 0H4.625C3.39878 0.00139872 2.22315 0.521449 1.35608 1.44604C0.489008 2.37063 0.0013117 3.62425 0 4.93182V26.0682C0.0013117 27.3758 0.489008 28.6294 1.35608 29.554C2.22315 30.4786 3.39878 30.9986 4.625 31H32.375C33.6012 30.9986 34.7768 30.4786 35.6439 29.554C36.511 28.6294 36.9987 27.3758 37 26.0682V4.93182C36.9987 3.62425 36.511 2.37063 35.6439 1.44604C34.7768 0.521449 33.6012 0.00139872 32.375 0ZM31.2039 8.15776L19.311 18.0214C19.0791 18.2136 18.7937 18.318 18.5 18.318C18.2063 18.318 17.9209 18.2136 17.689 18.0214L5.79612 8.15776C5.65639 8.04523 5.53902 7.90422 5.45084 7.74292C5.36266 7.58161 5.30542 7.40322 5.28245 7.21812C5.25948 7.03302 5.27124 6.8449 5.31704 6.66469C5.36285 6.48448 5.44178 6.31577 5.54926 6.16837C5.65673 6.02097 5.79061 5.89781 5.94311 5.80606C6.09561 5.71431 6.26368 5.65579 6.43757 5.6339C6.61146 5.61202 6.7877 5.6272 6.95604 5.67858C7.12438 5.72995 7.28146 5.81648 7.41817 5.93315L18.5 15.1239L29.5818 5.93315C29.8589 5.71001 30.2073 5.61214 30.5515 5.66071C30.8958 5.70928 31.2082 5.90039 31.4214 6.19271C31.6345 6.48503 31.7312 6.85506 31.6905 7.22279C31.6498 7.59052 31.475 7.92638 31.2039 8.15776Z" fill="black"/>
</svg>
