<svg width="19" height="17" viewBox="0 0 19 17" fill="none" xmlns="http://www.w3.org/2000/svg">
<path d="M1.08809 3.26697H3.70949C4.06162 4.12773 4.90282 4.75374 5.90051 4.75374C6.89821 4.75374 7.73941 4.1473 8.09154 3.26697H17.912C18.4011 3.26697 18.7923 2.87572 18.7923 2.38665C18.7923 1.89758 18.4011 1.50633 17.912 1.50633H8.09154C7.73941 0.606444 6.89821 0 5.90051 0C4.90282 0 4.06162 0.606444 3.70949 1.48677H1.08809C0.599018 1.48677 0.207764 1.87802 0.207764 2.36709C0.207764 2.85616 0.599018 3.26697 1.08809 3.26697Z" fill="#1E1E1E"/>
<path d="M17.912 7.6295H15.2906C14.9385 6.76874 14.0973 6.14273 13.0996 6.14273C12.1019 6.14273 11.2607 6.74917 10.9086 7.6295H1.08809C0.599018 7.6295 0.207764 8.02075 0.207764 8.50982C0.207764 8.99889 0.599018 9.39014 1.08809 9.39014H10.9086C11.2607 10.2509 12.1019 10.8769 13.0996 10.8769C14.0973 10.8769 14.9385 10.2705 15.2906 9.39014H17.912C18.4011 9.39014 18.7923 8.99889 18.7923 8.50982C18.7923 8.02075 18.4011 7.6295 17.912 7.6295Z" fill="#1E1E1E"/>
<path d="M17.912 13.7526H8.09154C7.73941 12.8918 6.89821 12.2658 5.90051 12.2658C4.90282 12.2658 4.06162 12.8723 3.70949 13.7526H1.08809C0.599018 13.7526 0.207764 14.1439 0.207764 14.6329C0.207764 15.122 0.599018 15.5133 1.08809 15.5133H3.70949C4.06162 16.374 4.90282 17 5.90051 17C6.89821 17 7.73941 16.3936 8.09154 15.5133H17.912C18.4011 15.5133 18.7923 15.122 18.7923 14.6329C18.7923 14.1634 18.4011 13.7526 17.912 13.7526Z" fill="#1E1E1E"/>
</svg>
