<svg width="249" height="74" viewBox="0 0 249 74" fill="none" xmlns="http://www.w3.org/2000/svg">
<path fill-rule="evenodd" clip-rule="evenodd" d="M49.2873 0.060713C49.4042 0.0550773 49.5306 0.0456711 49.6616 0.0359253C50.054 0.00671736 50.4874 -0.025542 50.829 0.0314923C52.0813 0.24059 54.4209 1.89934 55.3685 2.70699C57.9927 4.94308 59.6569 8.00462 59.816 11.3503C59.8938 12.9898 59.8804 14.6418 59.867 16.2888V16.2891C59.8624 16.8714 59.8576 17.453 59.857 18.0333L59.8436 29.8255L59.8584 38.7128C59.8586 39.1649 59.8631 39.6188 59.8675 40.0737C59.8899 42.3992 59.9127 44.7524 59.4006 47.0248C59.3583 47.2223 59.3125 47.419 59.263 47.6147C59.2136 47.8107 59.1605 48.0057 59.104 48.1999C59.0476 48.394 58.9875 48.5873 58.9239 48.7796C58.8604 48.9719 58.7934 49.1631 58.723 49.3532C58.6525 49.5433 58.5785 49.7323 58.5014 49.9201C58.424 50.1078 58.3433 50.2942 58.2592 50.4795C58.175 50.6646 58.0876 50.8485 57.997 51.0308C57.9062 51.2133 57.8122 51.3941 57.715 51.5734C57.6175 51.7528 57.517 51.9305 57.4133 52.1067C57.3095 52.2828 57.2027 52.4573 57.0927 52.6301C56.9825 52.8027 56.8693 52.9736 56.7531 53.1428C56.6369 53.3118 56.5176 53.4789 56.3951 53.6441C56.2729 53.8094 56.1476 53.9728 56.0193 54.1341C55.891 54.2953 55.7598 54.4544 55.6259 54.6115C55.4919 54.7686 55.355 54.9235 55.2153 55.0761C55.0758 55.2288 54.9334 55.3793 54.7882 55.5274C52.6437 57.7154 50.0231 59.3819 47.4117 61.0427C46.8349 61.4095 46.2583 61.7761 45.6876 62.148L37.2433 67.7283C36.6124 68.1409 35.9744 68.5484 35.3358 68.9562L35.335 68.9566C33.9467 69.8431 32.555 70.7317 31.2254 71.6813C31.119 71.707 31.0132 71.734 30.9077 71.761L30.9073 71.7611C30.1548 71.9535 29.4179 72.1418 28.6585 71.8464C28.0388 71.2495 26.6204 70.3816 25.427 69.6515L25.4269 69.6513C24.9315 69.3483 24.475 69.0689 24.1303 68.8425L13.2225 61.7346C12.7225 61.4064 12.2135 61.0832 11.7031 60.759C10.3474 59.8981 8.98149 59.0306 7.74623 58.046C4.10208 55.1414 0.98487 50.7012 0.222242 46.2228C0.0114963 44.9851 0.0344245 43.6907 0.0569565 42.4186C0.0636336 42.0416 0.0702758 41.6667 0.070792 41.2957L0.0819067 32.6719C0.0823799 32.2457 0.0893902 31.8155 0.0964282 31.3837C0.115222 30.2304 0.134212 29.065 0.0294604 27.9324L0.0193845 27.8331C0.0081726 27.3162 0.0247443 26.7956 0.0412746 26.2762C0.0485584 26.0473 0.0558343 25.8187 0.0607214 25.5909C0.0630296 25.2865 0.0653642 24.9821 0.0676992 24.6777C0.10929 19.2552 0.150995 13.8178 0.0450909 8.39816C-0.00924506 7.8802 -0.00224442 7.3384 0.00466668 6.80352C0.00780685 6.56048 0.0109285 6.31889 0.00826979 6.0816L0.00653129 0.0866661C0.977983 0.0906892 1.95037 0.0987524 2.92316 0.106819C5.50249 0.128207 8.08463 0.149618 10.6595 0.0958068C10.9551 0.0999846 11.2846 0.11592 11.6248 0.132373C12.3215 0.166062 13.063 0.201922 13.6497 0.143469C14.9283 0.079851 16.2223 0.0931502 17.5109 0.106395C18.0375 0.111806 18.563 0.117209 19.0864 0.117351L28.8336 0.118333L37.1919 0.114905C37.6109 0.115164 38.0364 0.107506 38.4641 0.0998082C39.3846 0.0832411 40.3151 0.066495 41.2112 0.128126C43.327 0.337387 47.0905 0.189175 49.2873 0.060713ZM49.0866 11.1292L48.9606 11.1014C44.4591 11.1977 39.9476 11.1739 35.4391 11.1501C33.5121 11.14 31.5854 11.1298 29.6605 11.129C27.6811 11.1282 25.6998 11.1379 23.7178 11.1476H23.7175C19.3544 11.1689 14.988 11.1902 10.6326 11.0996L10.8292 29.6599L49.0866 21.479C49.0872 21.3897 49.0928 21.1073 49.101 20.6899C49.1481 18.3062 49.282 11.5178 49.0866 11.1292ZM49.1931 30.0101L49.179 33.589L49.1931 42.5908C49.1938 42.9576 49.2097 43.3567 49.2261 43.7696C49.2702 44.8723 49.3182 46.073 49.09 47.0159C48.8222 48.1231 48.0272 49.1587 47.1659 49.9313C46.1434 50.8486 44.6238 51.7711 43.2296 52.6176C42.6751 52.9542 42.1405 53.2789 41.6647 53.5864L34.8366 57.9193C34.3795 58.2107 33.9238 58.5068 33.4676 58.8032C32.2853 59.5712 31.0992 60.3417 29.8773 61.0417C26.0797 58.5833 22.2645 56.1492 18.4316 53.7396C17.9945 53.4595 17.5465 53.1825 17.0958 52.9037C15.5659 51.9576 14.0028 50.991 12.7141 49.8089C11.9516 49.1098 11.3017 48.3393 10.9481 47.3836C10.547 46.3001 10.602 43.2296 10.6412 41.0384C10.6531 40.3737 10.6636 39.79 10.6594 39.3671L49.1931 30.0101Z" fill="#744746"/>
<path d="M83.152 21.88V27.544L80.048 30.52H71.76V8.984H80.048L82.768 11.544V17.08L80.08 19.512L83.152 21.88ZM75.952 18.008H78.96V12.28H75.952V18.008ZM75.952 27.256H78.96V21.272H75.952V27.256ZM98.0583 22.264V30.52H94.0583V21.528H90.9863V30.52H86.7623V8.984H94.8903L98.0583 11.96V17.4L95.2423 19.864L98.0583 22.264ZM90.9863 18.232H94.0583V12.28H90.9863V18.232ZM113.029 8.984V27.512L109.957 30.52H104.613L101.509 27.544V8.984H105.701V27.256H108.837V8.984H113.029ZM127.583 21.08V27.512L124.511 30.52H119.231L116.159 27.544V24.248H120.351V27.256H123.455V21.624L119.455 21.272L116.159 18.328V11.96L119.295 8.984H124.287L127.487 11.96V15.256H123.455V12.28H120.351V17.784L124.351 18.104L127.583 21.08ZM141.959 21.848V27.544L138.855 30.52H133.959L130.599 27.512V11.96L133.671 8.984H138.855L141.959 11.96V16.696H137.927V12.28H134.727V27.256H137.927V21.848H141.959ZM156.496 8.984V30.52H152.368V21.4H149.296V30.52H145.104V8.984H149.296V18.104H152.368V8.984H156.496ZM168.01 8.92L171.178 30.52H167.114L166.698 26.328H162.826L162.41 30.52H158.346L161.386 8.92H168.01ZM163.146 23.064H166.442L165.386 12.824H163.978L163.146 23.064ZM181.809 8.984V12.28H178.929V30.52H174.801V12.28H171.889V8.984H181.809ZM192.582 19L197.446 30.52H192.966L189.286 21.176L188.358 21.368V30.52H184.166V8.984H188.358V18.136L189.286 18.296L192.55 8.984H196.774L192.582 19ZM207.698 8.92L210.866 30.52H206.802L206.385 26.328H202.514L202.098 30.52H198.034L201.074 8.92H207.698ZM202.834 23.064H206.13L205.074 12.824H203.666L202.834 23.064ZM216.729 27.128V30.52H212.601V27.128H216.729ZM231.59 22.264V30.52H227.59V21.528H224.518V30.52H220.294V8.984H228.422L231.59 11.96V17.4L228.774 19.864L231.59 22.264ZM224.518 18.232H227.59V12.28H224.518V18.232ZM246.56 8.984V27.512L243.488 30.52H238.144L235.04 27.544V8.984H239.232V27.256H242.368V8.984H246.56Z" fill="#744746"/>
<path d="M70.48 57.92V53.968C70.8267 53.968 71.12 53.8827 71.36 53.712C71.6053 53.536 71.8053 53.2907 71.96 52.976C72.1147 52.656 72.2373 52.2827 72.328 51.856C72.4187 51.4293 72.4853 50.9653 72.528 50.464C72.5813 49.824 72.6293 49.1947 72.672 48.576C72.7147 47.952 72.7573 47.3067 72.8 46.64C72.8427 45.968 72.8907 45.2427 72.944 44.464L80.592 44.48V53.968H81.472V57.92H79.296V56H72.656V57.92H70.48ZM73.728 53.968H78.416V46.512L74.928 46.496C74.8907 47.024 74.8587 47.5093 74.832 47.952C74.8107 48.3947 74.784 48.8427 74.752 49.296C74.72 49.7493 74.6773 50.256 74.624 50.816C74.5707 51.376 74.5173 51.8373 74.464 52.2C74.4107 52.5573 74.328 52.8693 74.216 53.136C74.1093 53.4027 73.9467 53.68 73.728 53.968ZM88.1734 56.24C87.0214 56.24 86.0267 55.9893 85.1894 55.488C84.3574 54.9867 83.7147 54.2853 83.2614 53.384C82.8134 52.4827 82.5894 51.4347 82.5894 50.24C82.5894 49.0453 82.8134 47.9973 83.2614 47.096C83.7147 46.1947 84.3574 45.4933 85.1894 44.992C86.0267 44.4907 87.0214 44.24 88.1734 44.24C89.3254 44.24 90.3174 44.4907 91.1494 44.992C91.9867 45.4933 92.6294 46.1947 93.0774 47.096C93.5307 47.9973 93.7574 49.0453 93.7574 50.24C93.7574 51.4347 93.5307 52.4827 93.0774 53.384C92.6294 54.2853 91.9867 54.9867 91.1494 55.488C90.3174 55.9893 89.3254 56.24 88.1734 56.24ZM88.1734 54.192C88.904 54.2027 89.512 54.0453 89.9974 53.72C90.4827 53.3947 90.8454 52.9333 91.0854 52.336C91.3307 51.7387 91.4534 51.04 91.4534 50.24C91.4534 49.44 91.3307 48.7467 91.0854 48.16C90.8454 47.5733 90.4827 47.1173 89.9974 46.792C89.512 46.4667 88.904 46.2987 88.1734 46.288C87.4427 46.2773 86.8347 46.4347 86.3494 46.76C85.864 47.0853 85.4987 47.5467 85.2534 48.144C85.0134 48.7413 84.8934 49.44 84.8934 50.24C84.8934 51.04 85.0134 51.7333 85.2534 52.32C85.4987 52.9067 85.864 53.3627 86.3494 53.688C86.8347 54.0133 87.4427 54.1813 88.1734 54.192ZM95.3544 56V44.48H100.218C100.33 44.48 100.48 44.4853 100.666 44.496C100.858 44.5013 101.029 44.5173 101.178 44.544C101.866 44.6507 102.429 44.8773 102.866 45.224C103.309 45.5707 103.634 46.008 103.842 46.536C104.05 47.0587 104.154 47.6427 104.154 48.288C104.154 48.9333 104.048 49.52 103.834 50.048C103.626 50.5707 103.301 51.0053 102.858 51.352C102.421 51.6987 101.861 51.9253 101.178 52.032C101.029 52.0533 100.858 52.0693 100.666 52.08C100.474 52.0907 100.325 52.096 100.218 52.096H97.5304V56H95.3544ZM97.5304 50.064H100.122C100.234 50.064 100.357 50.0587 100.49 50.048C100.624 50.0373 100.746 50.016 100.858 49.984C101.152 49.904 101.378 49.7707 101.538 49.584C101.698 49.392 101.808 49.1813 101.866 48.952C101.93 48.7173 101.962 48.496 101.962 48.288C101.962 48.08 101.93 47.8613 101.866 47.632C101.808 47.3973 101.698 47.1867 101.538 47C101.378 46.808 101.152 46.672 100.858 46.592C100.746 46.56 100.624 46.5387 100.49 46.528C100.357 46.5173 100.234 46.512 100.122 46.512H97.5304V50.064ZM110.705 56.24C109.553 56.24 108.558 55.9893 107.721 55.488C106.889 54.9867 106.246 54.2853 105.793 53.384C105.345 52.4827 105.121 51.4347 105.121 50.24C105.121 49.0453 105.345 47.9973 105.793 47.096C106.246 46.1947 106.889 45.4933 107.721 44.992C108.558 44.4907 109.553 44.24 110.705 44.24C111.857 44.24 112.849 44.4907 113.681 44.992C114.518 45.4933 115.161 46.1947 115.609 47.096C116.062 47.9973 116.289 49.0453 116.289 50.24C116.289 51.4347 116.062 52.4827 115.609 53.384C115.161 54.2853 114.518 54.9867 113.681 55.488C112.849 55.9893 111.857 56.24 110.705 56.24ZM110.705 54.192C111.435 54.2027 112.043 54.0453 112.529 53.72C113.014 53.3947 113.377 52.9333 113.617 52.336C113.862 51.7387 113.985 51.04 113.985 50.24C113.985 49.44 113.862 48.7467 113.617 48.16C113.377 47.5733 113.014 47.1173 112.529 46.792C112.043 46.4667 111.435 46.2987 110.705 46.288C109.974 46.2773 109.366 46.4347 108.881 46.76C108.395 47.0853 108.03 47.5467 107.785 48.144C107.545 48.7413 107.425 49.44 107.425 50.24C107.425 51.04 107.545 51.7333 107.785 52.32C108.03 52.9067 108.395 53.3627 108.881 53.688C109.366 54.0133 109.974 54.1813 110.705 54.192ZM117.886 56V44.48H125.406V46.512H120.062V56H117.886ZM131.627 56.24C130.475 56.24 129.48 55.9893 128.643 55.488C127.811 54.9867 127.168 54.2853 126.715 53.384C126.267 52.4827 126.043 51.4347 126.043 50.24C126.043 49.0453 126.267 47.9973 126.715 47.096C127.168 46.1947 127.811 45.4933 128.643 44.992C129.48 44.4907 130.475 44.24 131.627 44.24C132.779 44.24 133.771 44.4907 134.602 44.992C135.44 45.4933 136.083 46.1947 136.531 47.096C136.984 47.9973 137.211 49.0453 137.211 50.24C137.211 51.4347 136.984 52.4827 136.531 53.384C136.083 54.2853 135.44 54.9867 134.602 55.488C133.771 55.9893 132.779 56.24 131.627 56.24ZM131.627 54.192C132.357 54.2027 132.965 54.0453 133.451 53.72C133.936 53.3947 134.299 52.9333 134.539 52.336C134.784 51.7387 134.907 51.04 134.907 50.24C134.907 49.44 134.784 48.7467 134.539 48.16C134.299 47.5733 133.936 47.1173 133.451 46.792C132.965 46.4667 132.357 46.2987 131.627 46.288C130.896 46.2773 130.288 46.4347 129.803 46.76C129.317 47.0853 128.952 47.5467 128.707 48.144C128.467 48.7413 128.347 49.44 128.347 50.24C128.347 51.04 128.467 51.7333 128.707 52.32C128.952 52.9067 129.317 53.3627 129.803 53.688C130.288 54.0133 130.896 54.1813 131.627 54.192ZM138.363 56V53.824H140.539V56H138.363ZM146.339 56V44.48H150.947C151.768 44.48 152.432 44.6453 152.939 44.976C153.445 45.3013 153.816 45.712 154.051 46.208C154.285 46.704 154.403 47.2053 154.403 47.712C154.403 48.3573 154.256 48.8933 153.963 49.32C153.675 49.7467 153.277 50.032 152.771 50.176V49.776C153.491 49.9253 154.029 50.2587 154.387 50.776C154.749 51.2933 154.931 51.872 154.931 52.512C154.931 53.2 154.803 53.8053 154.547 54.328C154.296 54.8507 153.912 55.2613 153.395 55.56C152.877 55.8533 152.227 56 151.443 56H146.339ZM148.547 53.952H151.219C151.512 53.952 151.773 53.8907 152.003 53.768C152.232 53.64 152.411 53.464 152.539 53.24C152.672 53.0107 152.739 52.7413 152.739 52.432C152.739 52.16 152.683 51.9173 152.571 51.704C152.459 51.4907 152.288 51.3227 152.059 51.2C151.835 51.072 151.555 51.008 151.219 51.008H148.547V53.952ZM148.547 48.976H150.915C151.16 48.976 151.379 48.9333 151.571 48.848C151.763 48.7627 151.915 48.632 152.027 48.456C152.139 48.2747 152.195 48.0427 152.195 47.76C152.195 47.408 152.085 47.112 151.867 46.872C151.648 46.632 151.331 46.512 150.915 46.512H148.547V48.976ZM156.526 56V44.48H164.046V46.512H158.702V48.976H163.086V51.008H158.702V53.968H164.046V56H156.526ZM172.508 56V50.976L172.812 51.472C172.518 51.7333 172.1 51.936 171.556 52.08C171.017 52.2187 170.454 52.288 169.868 52.288C168.908 52.288 168.142 52.0987 167.572 51.72C167.001 51.336 166.59 50.808 166.34 50.136C166.089 49.4587 165.964 48.6773 165.964 47.792V44.48H168.172V47.136C168.172 47.4827 168.185 47.8373 168.212 48.2C168.238 48.5627 168.316 48.8987 168.444 49.208C168.577 49.5173 168.796 49.768 169.1 49.96C169.404 50.1467 169.83 50.24 170.38 50.24C170.972 50.24 171.473 50.1387 171.884 49.936C172.294 49.728 172.582 49.5093 172.748 49.28L172.508 50.256V44.48H174.7V56H172.508ZM176.933 56V44.48H179.109V49.216H184.26V44.48H186.437V56H184.26V51.248H179.109V56H176.933ZM193.627 56.24C192.475 56.24 191.48 55.9893 190.643 55.488C189.811 54.9867 189.168 54.2853 188.715 53.384C188.267 52.4827 188.043 51.4347 188.043 50.24C188.043 49.0453 188.267 47.9973 188.715 47.096C189.168 46.1947 189.811 45.4933 190.643 44.992C191.48 44.4907 192.475 44.24 193.627 44.24C194.779 44.24 195.771 44.4907 196.602 44.992C197.44 45.4933 198.083 46.1947 198.531 47.096C198.984 47.9973 199.211 49.0453 199.211 50.24C199.211 51.4347 198.984 52.4827 198.531 53.384C198.083 54.2853 197.44 54.9867 196.602 55.488C195.771 55.9893 194.779 56.24 193.627 56.24ZM193.627 54.192C194.357 54.2027 194.965 54.0453 195.451 53.72C195.936 53.3947 196.299 52.9333 196.539 52.336C196.784 51.7387 196.907 51.04 196.907 50.24C196.907 49.44 196.784 48.7467 196.539 48.16C196.299 47.5733 195.936 47.1173 195.451 46.792C194.965 46.4667 194.357 46.2987 193.627 46.288C192.896 46.2773 192.288 46.4347 191.803 46.76C191.317 47.0853 190.952 47.5467 190.707 48.144C190.467 48.7413 190.347 49.44 190.347 50.24C190.347 51.04 190.467 51.7333 190.707 52.32C190.952 52.9067 191.317 53.3627 191.803 53.688C192.288 54.0133 192.896 54.1813 193.627 54.192ZM200.363 56V53.824H202.539V56H200.363ZM75.68 72.24C74.816 72.24 74.0427 72.1093 73.36 71.848C72.6827 71.5813 72.1067 71.1787 71.632 70.64C71.1627 70.1013 70.8053 69.424 70.56 68.608L72.688 68.08C72.8907 68.6933 73.24 69.2 73.736 69.6C74.232 70 74.832 70.1973 75.536 70.192C76.032 70.1813 76.504 70.0827 76.952 69.896C77.4053 69.7093 77.7707 69.424 78.048 69.04C78.2507 68.784 78.4053 68.504 78.512 68.2C78.624 67.8907 78.704 67.5733 78.752 67.248H74.72V65.216H78.768C78.672 64.6293 78.4853 64.1147 78.208 63.672C77.9307 63.2293 77.568 62.8853 77.12 62.64C76.672 62.3947 76.144 62.2773 75.536 62.288C74.816 62.2933 74.2027 62.496 73.696 62.896C73.1947 63.296 72.848 63.8293 72.656 64.496L70.48 64.192C70.768 62.9333 71.3627 61.96 72.264 61.272C73.1653 60.584 74.304 60.24 75.68 60.24C76.7947 60.24 77.7573 60.4933 78.568 61C79.384 61.5013 80.0133 62.2027 80.456 63.104C80.8987 64.0053 81.12 65.0507 81.12 66.24C81.12 67.36 80.9013 68.3733 80.464 69.28C80.032 70.1867 79.408 70.9067 78.592 71.44C77.7813 71.9733 76.8107 72.24 75.68 72.24ZM83.5138 72V60.48H85.6898V65.792L90.0738 60.48H92.7298L87.9138 66.16L93.0338 72H90.2818L85.6898 66.752V72H83.5138ZM99.2578 72.24C98.1058 72.24 97.1111 71.9893 96.2738 71.488C95.4418 70.9867 94.7991 70.2853 94.3458 69.384C93.8978 68.4827 93.6738 67.4347 93.6738 66.24C93.6738 65.0453 93.8978 63.9973 94.3458 63.096C94.7991 62.1947 95.4418 61.4933 96.2738 60.992C97.1111 60.4907 98.1058 60.24 99.2578 60.24C100.58 60.24 101.69 60.568 102.586 61.224C103.487 61.88 104.122 62.768 104.49 63.888L102.298 64.496C102.084 63.7973 101.724 63.256 101.218 62.872C100.711 62.4827 100.058 62.288 99.2578 62.288C98.5271 62.288 97.9164 62.4507 97.4258 62.776C96.9404 63.1013 96.5751 63.56 96.3298 64.152C96.0844 64.744 95.9618 65.44 95.9618 66.24C95.9618 67.04 96.0844 67.736 96.3298 68.328C96.5751 68.92 96.9404 69.3787 97.4258 69.704C97.9164 70.0293 98.5271 70.192 99.2578 70.192C100.058 70.192 100.711 69.9973 101.218 69.608C101.724 69.2187 102.084 68.6773 102.298 67.984L104.49 68.592C104.122 69.712 103.487 70.6 102.586 71.256C101.69 71.912 100.58 72.24 99.2578 72.24ZM107.051 72V60.48H109.227V65.792L113.611 60.48H116.267L111.451 66.16L116.571 72H113.819L109.227 66.752V72H107.051ZM117.692 72V70.192C117.937 70.208 118.145 70.1867 118.316 70.128C118.487 70.0693 118.631 69.9627 118.748 69.808C118.871 69.648 118.977 69.4293 119.068 69.152C119.159 68.8693 119.244 68.5173 119.324 68.096C119.452 67.4293 119.559 66.728 119.644 65.992C119.735 65.2507 119.809 64.5253 119.868 63.816C119.927 63.1067 119.972 62.4613 120.004 61.88C120.036 61.2933 120.06 60.8267 120.076 60.48H127.932V72H125.756V62.512H122.076C122.055 62.8107 122.025 63.2 121.988 63.68C121.956 64.16 121.911 64.6907 121.852 65.272C121.793 65.8533 121.721 66.456 121.636 67.08C121.551 67.704 121.447 68.3093 121.324 68.896C121.212 69.4667 121.076 69.9733 120.916 70.416C120.756 70.8533 120.543 71.2133 120.276 71.496C120.015 71.7733 119.676 71.9573 119.26 72.048C118.844 72.1387 118.321 72.1227 117.692 72ZM130.979 72V60.48H133.155V65.152H135.075V67.328H133.155V72H130.979ZM139.747 72.24C138.985 72.24 138.299 72.104 137.691 71.832C137.083 71.56 136.566 71.1653 136.139 70.648C135.713 70.1253 135.385 69.4933 135.155 68.752C134.931 68.0107 134.819 67.1733 134.819 66.24C134.819 65.3013 134.931 64.464 135.155 63.728C135.385 62.9867 135.713 62.3573 136.139 61.84C136.566 61.3173 137.083 60.92 137.691 60.648C138.299 60.376 138.985 60.24 139.747 60.24C140.51 60.24 141.195 60.376 141.803 60.648C142.411 60.92 142.929 61.3173 143.355 61.84C143.782 62.3573 144.107 62.9867 144.331 63.728C144.561 64.464 144.675 65.3013 144.675 66.24C144.675 67.1733 144.561 68.0107 144.331 68.752C144.107 69.4933 143.782 70.1253 143.355 70.648C142.929 71.1653 142.411 71.56 141.803 71.832C141.195 72.104 140.51 72.24 139.747 72.24ZM139.747 70.192C140.195 70.192 140.585 70.0987 140.915 69.912C141.246 69.72 141.518 69.4507 141.731 69.104C141.945 68.752 142.105 68.3333 142.211 67.848C142.318 67.3627 142.371 66.8267 142.371 66.24C142.371 65.6533 142.318 65.1173 142.211 64.632C142.105 64.1467 141.945 63.7307 141.731 63.384C141.518 63.032 141.246 62.7627 140.915 62.576C140.585 62.384 140.195 62.288 139.747 62.288C139.299 62.288 138.91 62.384 138.579 62.576C138.249 62.7627 137.977 63.032 137.763 63.384C137.55 63.7307 137.39 64.1467 137.283 64.632C137.177 65.1173 137.123 65.6533 137.123 66.24C137.123 66.8267 137.177 67.3627 137.283 67.848C137.39 68.3333 137.55 68.752 137.763 69.104C137.977 69.4507 138.249 69.72 138.579 69.912C138.91 70.0987 139.299 70.192 139.747 70.192ZM151.284 72.24C150.468 72.24 149.751 72.12 149.132 71.88C148.519 71.64 148.002 71.3333 147.58 70.96C147.159 70.5813 146.831 70.1867 146.596 69.776L148.436 68.496C148.564 68.7627 148.746 69.0267 148.98 69.288C149.215 69.5493 149.527 69.7653 149.916 69.936C150.306 70.1067 150.794 70.192 151.38 70.192C151.935 70.192 152.38 70.112 152.716 69.952C153.058 69.792 153.303 69.5867 153.452 69.336C153.607 69.0853 153.684 68.8213 153.684 68.544C153.684 68.176 153.575 67.8933 153.356 67.696C153.143 67.4987 152.866 67.3627 152.524 67.288C152.183 67.208 151.823 67.1627 151.444 67.152C151.076 67.1413 150.81 67.1333 150.644 67.128C150.484 67.1227 150.375 67.12 150.316 67.12C150.263 67.12 150.212 67.12 150.164 67.12V65.072C150.234 65.072 150.335 65.072 150.468 65.072C150.607 65.072 150.746 65.072 150.884 65.072C151.028 65.0667 151.146 65.0613 151.236 65.056C151.796 65.0293 152.263 64.9067 152.636 64.688C153.015 64.4693 153.204 64.128 153.204 63.664C153.204 63.2373 153.036 62.8987 152.7 62.648C152.37 62.3973 151.924 62.272 151.364 62.272C150.836 62.272 150.364 62.3867 149.948 62.616C149.538 62.84 149.236 63.088 149.044 63.36L147.556 61.76C147.956 61.344 148.492 60.9867 149.164 60.688C149.836 60.3893 150.591 60.24 151.428 60.24C151.935 60.24 152.431 60.3067 152.916 60.44C153.402 60.568 153.839 60.768 154.228 61.04C154.618 61.3067 154.927 61.6507 155.156 62.072C155.391 62.4933 155.508 62.9973 155.508 63.584C155.508 64.08 155.42 64.5493 155.244 64.992C155.068 65.4293 154.815 65.7973 154.484 66.096C154.964 66.3093 155.335 66.6187 155.596 67.024C155.858 67.4293 155.988 67.936 155.988 68.544C155.988 69.3067 155.775 69.9653 155.348 70.52C154.927 71.0693 154.359 71.4933 153.644 71.792C152.935 72.0907 152.148 72.24 151.284 72.24ZM167.972 72H165.764V64.32L160.756 72H158.548V60.48H160.756V68.16L165.764 60.48H167.972V72ZM171.004 72V60.48H175.612C176.434 60.48 177.098 60.6453 177.604 60.976C178.111 61.3013 178.482 61.712 178.716 62.208C178.951 62.704 179.068 63.2053 179.068 63.712C179.068 64.3573 178.922 64.8933 178.628 65.32C178.34 65.7467 177.943 66.032 177.436 66.176V65.776C178.156 65.9253 178.695 66.2587 179.052 66.776C179.415 67.2933 179.596 67.872 179.596 68.512C179.596 69.2 179.468 69.8053 179.212 70.328C178.962 70.8507 178.578 71.2613 178.06 71.56C177.543 71.8533 176.892 72 176.108 72H171.004ZM173.212 69.952H175.884C176.178 69.952 176.439 69.8907 176.668 69.768C176.898 69.64 177.076 69.464 177.204 69.24C177.338 69.0107 177.404 68.7413 177.404 68.432C177.404 68.16 177.348 67.9173 177.236 67.704C177.124 67.4907 176.954 67.3227 176.724 67.2C176.5 67.072 176.22 67.008 175.884 67.008H173.212V69.952ZM173.212 64.976H175.58C175.826 64.976 176.044 64.9333 176.236 64.848C176.428 64.7627 176.58 64.632 176.692 64.456C176.804 64.2747 176.86 64.0427 176.86 63.76C176.86 63.408 176.751 63.112 176.532 62.872C176.314 62.632 175.996 62.512 175.58 62.512H173.212V64.976ZM181.992 72V60.48H184.168V65.216H189.32V60.48H191.496V72H189.32V67.248H184.168V72H181.992ZM199.486 72.24C198.334 72.24 197.339 71.9893 196.502 71.488C195.67 70.9867 195.027 70.2853 194.574 69.384C194.126 68.4827 193.902 67.4347 193.902 66.24C193.902 65.0453 194.126 63.9973 194.574 63.096C195.027 62.1947 195.67 61.4933 196.502 60.992C197.339 60.4907 198.334 60.24 199.486 60.24C200.638 60.24 201.63 60.4907 202.462 60.992C203.299 61.4933 203.942 62.1947 204.39 63.096C204.843 63.9973 205.07 65.0453 205.07 66.24C205.07 67.4347 204.843 68.4827 204.39 69.384C203.942 70.2853 203.299 70.9867 202.462 71.488C201.63 71.9893 200.638 72.24 199.486 72.24ZM199.486 70.192C200.217 70.2027 200.825 70.0453 201.31 69.72C201.795 69.3947 202.158 68.9333 202.398 68.336C202.643 67.7387 202.766 67.04 202.766 66.24C202.766 65.44 202.643 64.7467 202.398 64.16C202.158 63.5733 201.795 63.1173 201.31 62.792C200.825 62.4667 200.217 62.2987 199.486 62.288C198.755 62.2773 198.147 62.4347 197.662 62.76C197.177 63.0853 196.811 63.5467 196.566 64.144C196.326 64.7413 196.206 65.44 196.206 66.24C196.206 67.04 196.326 67.7333 196.566 68.32C196.811 68.9067 197.177 69.3627 197.662 69.688C198.147 70.0133 198.755 70.1813 199.486 70.192ZM207.022 72V69.824H209.198V72H207.022Z" fill="#1E1E1E"/>
</svg>
