<svg width="40" height="40" viewBox="0 0 40 40" fill="none" xmlns="http://www.w3.org/2000/svg">
<path d="M20 0C8.95481 0 0 8.95481 0 20C0 31.0452 8.95481 40 20 40C31.0452 40 40 31.0452 40 20C40 8.95481 31.0452 0 20 0ZM30.3183 24.9337C30.0298 25.222 29.6386 25.3839 29.2308 25.3839C28.8229 25.3839 28.4318 25.222 28.1433 24.9337L20 16.7913L11.8567 24.9337C11.5659 25.21 11.1786 25.3618 10.7774 25.3566C10.3762 25.3515 9.99292 25.1899 9.70923 24.9062C9.42553 24.6225 9.26388 24.2392 9.25875 23.838C9.25361 23.4368 9.40539 23.0495 9.68173 22.7587L18.9125 13.5279C19.201 13.2396 19.5921 13.0776 20 13.0776C20.4079 13.0776 20.799 13.2396 21.0875 13.5279L30.3183 22.7587C30.6066 23.0471 30.7685 23.4383 30.7685 23.8462C30.7685 24.254 30.6066 24.6452 30.3183 24.9337Z" fill="white" fill-opacity="0.6"/>
</svg>
