<svg width="40" height="40" viewBox="0 0 40 40" fill="none" xmlns="http://www.w3.org/2000/svg">
<path d="M20 40C31.0452 40 40 31.0452 40 20C40 8.95481 31.0452 0 20 0C8.95481 0 0 8.95481 0 20C0 31.0452 8.95481 40 20 40ZM9.68173 15.0663C9.97022 14.778 10.3614 14.6161 10.7692 14.6161C11.1771 14.6161 11.5682 14.778 11.8567 15.0663L20 23.2087L28.1433 15.0663C28.4341 14.79 28.8214 14.6382 29.2226 14.6434C29.6238 14.6485 30.0071 14.8101 30.2908 15.0938C30.5745 15.3775 30.7361 15.7608 30.7413 16.162C30.7464 16.5632 30.5946 16.9505 30.3183 17.2413L21.0875 26.4721C20.799 26.7604 20.4079 26.9224 20 26.9224C19.5921 26.9224 19.201 26.7604 18.9125 26.4721L9.68173 17.2413C9.39343 16.9529 9.23148 16.5617 9.23148 16.1538C9.23148 15.746 9.39343 15.3548 9.68173 15.0663Z" fill="white" fill-opacity="0.6"/>
</svg>
