<svg width="22" height="22" viewBox="0 0 22 22" fill="none" xmlns="http://www.w3.org/2000/svg">
<path fill-rule="evenodd" clip-rule="evenodd" d="M18.7947 3.19692C17.7778 2.17945 16.5696 1.37319 15.2398 0.824534C13.9099 0.27588 12.4847 -0.00432457 11.0461 5.04524e-05C5.00892 5.04524e-05 0.0942855 4.89013 0.0918302 10.9018C0.0891594 12.8161 0.593751 14.6968 1.55424 16.3527L0 22L5.80691 20.4841C7.41429 21.3548 9.21363 21.8106 11.0417 21.81H11.0461C17.0829 21.81 21.997 16.9194 22 10.9082C22.0036 9.47454 21.7221 8.05448 21.1719 6.73063C20.6216 5.40678 19.8136 4.20558 18.7947 3.19692ZM11.0461 19.9699H11.0422C9.41254 19.9704 7.81249 19.5343 6.40847 18.7069L6.07602 18.5105L2.63017 19.4101L3.54995 16.0664L3.33339 15.7226C2.42215 14.28 1.93936 12.6082 1.9412 10.9018C1.9412 5.90615 6.0274 1.84156 11.0496 1.84156C13.4588 1.83726 15.771 2.79008 17.4777 4.49046C19.1845 6.19083 20.1459 8.4995 20.1506 10.9087C20.1486 15.9048 16.0644 19.9699 11.0461 19.9699ZM16.0398 13.1838C15.7663 13.0473 14.4193 12.3883 14.1698 12.2974C13.9204 12.2066 13.7362 12.1609 13.554 12.434C13.3719 12.707 12.8469 13.3179 12.6873 13.502C12.5277 13.6862 12.3681 13.7063 12.0946 13.5698C11.8211 13.4333 10.9386 13.146 9.89311 12.2179C9.07941 11.4955 8.53039 10.6037 8.37079 10.3312C8.21119 10.0586 8.3536 9.91083 8.49061 9.7753C8.61387 9.65302 8.76414 9.45708 8.90115 9.29798C9.03816 9.13887 9.08382 9.02494 9.17467 8.84324C9.26552 8.66155 9.22034 8.50244 9.15208 8.36642C9.08382 8.23039 8.53628 6.88928 8.30842 6.3437C8.08597 5.81236 7.86057 5.88455 7.69262 5.8762C7.53302 5.86834 7.34887 5.86638 7.16767 5.86638C7.02914 5.86998 6.89285 5.90211 6.76729 5.96074C6.64174 6.01938 6.52962 6.10327 6.43794 6.20718C6.187 6.48021 5.47986 7.14021 5.47986 8.47985C5.47986 9.81949 6.462 11.1159 6.59753 11.2976C6.73307 11.4793 8.52744 14.2308 11.273 15.4108C11.7828 15.6292 12.3038 15.8206 12.8336 15.9844C13.4892 16.1916 14.0859 16.1626 14.5573 16.0924C15.0832 16.0143 16.1778 15.4334 16.4052 14.797C16.6326 14.1606 16.6331 13.6155 16.5648 13.502C16.4965 13.3886 16.3139 13.3198 16.0398 13.1838Z" fill="white"/>
</svg>
